<mxfile host="app.diagrams.net" agent="Mozilla/5.0 (Windows NT 10.0; Win64; x64) AppleWebKit/537.36 (KHTML, like Gecko) Chrome/130.0.0.0 Safari/537.36" version="24.8.4">
  <diagram name="第 1 页" id="x2RCLQJNFOokwv0vQ6ZX">
    <mxGraphModel dx="1548" dy="-1937" grid="0" gridSize="10" guides="1" tooltips="1" connect="1" arrows="1" fold="1" page="0" pageScale="1" pageWidth="827" pageHeight="1169" math="1" shadow="0">
      <root>
        <mxCell id="0" />
        <mxCell id="1" parent="0" />
        <mxCell id="cE3jWu65OG-3f8qymqwR-211" value="" style="rounded=0;whiteSpace=wrap;html=1;strokeColor=#96CA2D;" vertex="1" parent="1">
          <mxGeometry x="128.46" y="3247" width="267.54" height="68" as="geometry" />
        </mxCell>
        <mxCell id="cE3jWu65OG-3f8qymqwR-212" value="" style="rounded=0;whiteSpace=wrap;html=1;strokeColor=#F16B6F;" vertex="1" parent="1">
          <mxGeometry x="65.32" y="3321" width="391" height="140" as="geometry" />
        </mxCell>
        <mxCell id="cE3jWu65OG-3f8qymqwR-213" value="" style="endArrow=classic;html=1;rounded=0;exitX=1;exitY=0.5;exitDx=0;exitDy=0;endSize=3;" edge="1" parent="1" source="cE3jWu65OG-3f8qymqwR-218">
          <mxGeometry width="50" height="50" relative="1" as="geometry">
            <mxPoint x="146.44999999999993" y="3390.8100000000004" as="sourcePoint" />
            <mxPoint x="215.56999999999994" y="3391" as="targetPoint" />
          </mxGeometry>
        </mxCell>
        <mxCell id="cE3jWu65OG-3f8qymqwR-214" style="edgeStyle=orthogonalEdgeStyle;rounded=0;orthogonalLoop=1;jettySize=auto;html=1;entryX=0;entryY=0.5;entryDx=0;entryDy=0;endArrow=none;endFill=0;" edge="1" parent="1" source="cE3jWu65OG-3f8qymqwR-216" target="cE3jWu65OG-3f8qymqwR-217">
          <mxGeometry relative="1" as="geometry">
            <Array as="points">
              <mxPoint x="127.56999999999994" y="3392" />
              <mxPoint x="127.56999999999994" y="3341" />
            </Array>
          </mxGeometry>
        </mxCell>
        <mxCell id="cE3jWu65OG-3f8qymqwR-215" style="edgeStyle=orthogonalEdgeStyle;rounded=0;orthogonalLoop=1;jettySize=auto;html=1;entryX=0;entryY=0.5;entryDx=0;entryDy=0;endArrow=none;endFill=0;" edge="1" parent="1" source="cE3jWu65OG-3f8qymqwR-216" target="cE3jWu65OG-3f8qymqwR-219">
          <mxGeometry relative="1" as="geometry">
            <Array as="points">
              <mxPoint x="127.56999999999994" y="3392" />
              <mxPoint x="127.56999999999994" y="3441" />
            </Array>
          </mxGeometry>
        </mxCell>
        <mxCell id="cE3jWu65OG-3f8qymqwR-216" value="conv" style="rounded=0;whiteSpace=wrap;html=1;strokeColor=#9673a6;align=center;verticalAlign=middle;fontFamily=Helvetica;fontSize=8;fillColor=#e1d5e7;" vertex="1" parent="1">
          <mxGeometry x="87.56999999999994" y="3376.5" width="30" height="30" as="geometry" />
        </mxCell>
        <mxCell id="cE3jWu65OG-3f8qymqwR-217" value="conv" style="rounded=0;whiteSpace=wrap;html=1;strokeColor=#9673a6;align=center;verticalAlign=middle;fontFamily=Helvetica;fontSize=8;fillColor=#e1d5e7;" vertex="1" parent="1">
          <mxGeometry x="149.55999999999995" y="3326" width="30" height="30" as="geometry" />
        </mxCell>
        <mxCell id="cE3jWu65OG-3f8qymqwR-218" value="conv" style="rounded=0;whiteSpace=wrap;html=1;strokeColor=#9673a6;align=center;verticalAlign=middle;fontFamily=Helvetica;fontSize=8;fillColor=#e1d5e7;" vertex="1" parent="1">
          <mxGeometry x="149.44999999999993" y="3376" width="30" height="30" as="geometry" />
        </mxCell>
        <mxCell id="cE3jWu65OG-3f8qymqwR-219" value="conv" style="rounded=0;whiteSpace=wrap;html=1;strokeColor=#9673a6;align=center;verticalAlign=middle;fontFamily=Helvetica;fontSize=8;fillColor=#e1d5e7;" vertex="1" parent="1">
          <mxGeometry x="149.55999999999995" y="3426" width="30" height="30" as="geometry" />
        </mxCell>
        <mxCell id="cE3jWu65OG-3f8qymqwR-220" style="edgeStyle=none;rounded=0;orthogonalLoop=1;jettySize=auto;html=1;exitX=1;exitY=0.5;exitDx=0;exitDy=0;exitPerimeter=0;endSize=3;" edge="1" parent="1">
          <mxGeometry relative="1" as="geometry">
            <mxPoint x="264.65999999999997" y="3391" as="sourcePoint" />
            <mxPoint x="307.56999999999994" y="3391" as="targetPoint" />
          </mxGeometry>
        </mxCell>
        <mxCell id="cE3jWu65OG-3f8qymqwR-221" value="" style="verticalLabelPosition=bottom;verticalAlign=top;html=1;shape=mxgraph.flowchart.or;" vertex="1" parent="1">
          <mxGeometry x="254.30999999999995" y="3386" width="10" height="10" as="geometry" />
        </mxCell>
        <mxCell id="cE3jWu65OG-3f8qymqwR-222" value="" style="endArrow=classic;html=1;rounded=0;endSize=3;exitX=1.066;exitY=0.536;exitDx=0;exitDy=0;exitPerimeter=0;" edge="1" parent="1">
          <mxGeometry width="50" height="50" relative="1" as="geometry">
            <mxPoint x="179.44999999999993" y="3340.890000000001" as="sourcePoint" />
            <mxPoint x="215.56999999999994" y="3341" as="targetPoint" />
          </mxGeometry>
        </mxCell>
        <mxCell id="cE3jWu65OG-3f8qymqwR-223" value="&lt;font style=&quot;font-size: 6px;&quot;&gt;transpose&lt;/font&gt;" style="text;html=1;align=center;verticalAlign=middle;whiteSpace=wrap;rounded=0;fontSize=6;spacing=0;fillColor=none;" vertex="1" parent="1">
          <mxGeometry x="181.55999999999995" y="3381" width="27" height="11" as="geometry" />
        </mxCell>
        <mxCell id="cE3jWu65OG-3f8qymqwR-224" style="edgeStyle=orthogonalEdgeStyle;rounded=0;orthogonalLoop=1;jettySize=auto;html=1;entryX=0.5;entryY=0;entryDx=0;entryDy=0;entryPerimeter=0;endSize=3;exitX=1;exitY=0.5;exitDx=0;exitDy=0;" edge="1" parent="1">
          <mxGeometry relative="1" as="geometry">
            <mxPoint x="229.36999999999978" y="3342" as="sourcePoint" />
            <mxPoint x="259.30999999999995" y="3386" as="targetPoint" />
            <Array as="points">
              <mxPoint x="259.56999999999994" y="3342" />
            </Array>
          </mxGeometry>
        </mxCell>
        <mxCell id="cE3jWu65OG-3f8qymqwR-225" value="" style="group" vertex="1" connectable="0" parent="1">
          <mxGeometry x="278.56999999999994" y="3386" width="10" height="10" as="geometry" />
        </mxCell>
        <mxCell id="cE3jWu65OG-3f8qymqwR-226" value="" style="ellipse;html=1;verticalLabelPosition=bottom;labelBackgroundColor=#ffffff;verticalAlign=top;fillColor=#ffffff" vertex="1" parent="cE3jWu65OG-3f8qymqwR-225">
          <mxGeometry width="10" height="10" as="geometry" />
        </mxCell>
        <mxCell id="cE3jWu65OG-3f8qymqwR-227" style="edgeStyle=orthogonalEdgeStyle;rounded=0;orthogonalLoop=1;jettySize=auto;html=1;exitX=0;exitY=1;exitDx=0;exitDy=0;entryX=1;entryY=0;entryDx=0;entryDy=0;endArrow=none;endFill=0;curved=1;" edge="1" parent="cE3jWu65OG-3f8qymqwR-225" source="cE3jWu65OG-3f8qymqwR-226" target="cE3jWu65OG-3f8qymqwR-226">
          <mxGeometry relative="1" as="geometry">
            <Array as="points">
              <mxPoint x="5" y="8" />
              <mxPoint x="5" y="2" />
            </Array>
          </mxGeometry>
        </mxCell>
        <mxCell id="cE3jWu65OG-3f8qymqwR-228" value="&lt;font style=&quot;font-size: 8px;&quot;&gt;$$\text{Attention Map}$$&lt;/font&gt;" style="text;html=1;align=center;verticalAlign=middle;whiteSpace=wrap;rounded=0;fontSize=8;" vertex="1" parent="1">
          <mxGeometry x="277.27" y="3360" width="97.6" height="20" as="geometry" />
        </mxCell>
        <mxCell id="cE3jWu65OG-3f8qymqwR-229" value="" style="shape=table;startSize=0;container=1;collapsible=0;childLayout=tableLayout;strokeColor=none;" vertex="1" parent="1">
          <mxGeometry x="310.06999999999994" y="3376" width="30" height="30" as="geometry" />
        </mxCell>
        <mxCell id="cE3jWu65OG-3f8qymqwR-230" value="" style="shape=tableRow;horizontal=0;startSize=0;swimlaneHead=0;swimlaneBody=0;strokeColor=inherit;top=0;left=0;bottom=0;right=0;collapsible=0;dropTarget=0;fillColor=none;points=[[0,0.5],[1,0.5]];portConstraint=eastwest;" vertex="1" parent="cE3jWu65OG-3f8qymqwR-229">
          <mxGeometry width="30" height="10" as="geometry" />
        </mxCell>
        <mxCell id="cE3jWu65OG-3f8qymqwR-231" value="" style="shape=partialRectangle;html=1;whiteSpace=wrap;connectable=0;strokeColor=inherit;overflow=hidden;fillColor=#ffdae2;top=0;left=0;bottom=0;right=0;pointerEvents=1;" vertex="1" parent="cE3jWu65OG-3f8qymqwR-230">
          <mxGeometry width="10" height="10" as="geometry">
            <mxRectangle width="10" height="10" as="alternateBounds" />
          </mxGeometry>
        </mxCell>
        <mxCell id="cE3jWu65OG-3f8qymqwR-232" value="" style="shape=partialRectangle;html=1;whiteSpace=wrap;connectable=0;strokeColor=inherit;overflow=hidden;fillColor=#fd9fa8;top=0;left=0;bottom=0;right=0;pointerEvents=1;" vertex="1" parent="cE3jWu65OG-3f8qymqwR-230">
          <mxGeometry x="10" width="10" height="10" as="geometry">
            <mxRectangle width="10" height="10" as="alternateBounds" />
          </mxGeometry>
        </mxCell>
        <mxCell id="cE3jWu65OG-3f8qymqwR-233" value="" style="shape=partialRectangle;html=1;whiteSpace=wrap;connectable=0;strokeColor=inherit;overflow=hidden;fillColor=#fb9098;top=0;left=0;bottom=0;right=0;pointerEvents=1;" vertex="1" parent="cE3jWu65OG-3f8qymqwR-230">
          <mxGeometry x="20" width="10" height="10" as="geometry">
            <mxRectangle width="10" height="10" as="alternateBounds" />
          </mxGeometry>
        </mxCell>
        <mxCell id="cE3jWu65OG-3f8qymqwR-234" value="" style="shape=tableRow;horizontal=0;startSize=0;swimlaneHead=0;swimlaneBody=0;strokeColor=inherit;top=0;left=0;bottom=0;right=0;collapsible=0;dropTarget=0;fillColor=none;points=[[0,0.5],[1,0.5]];portConstraint=eastwest;" vertex="1" parent="cE3jWu65OG-3f8qymqwR-229">
          <mxGeometry y="10" width="30" height="10" as="geometry" />
        </mxCell>
        <mxCell id="cE3jWu65OG-3f8qymqwR-235" value="" style="shape=partialRectangle;html=1;whiteSpace=wrap;connectable=0;strokeColor=inherit;overflow=hidden;fillColor=#ffaeb8;top=0;left=0;bottom=0;right=0;pointerEvents=1;" vertex="1" parent="cE3jWu65OG-3f8qymqwR-234">
          <mxGeometry width="10" height="10" as="geometry">
            <mxRectangle width="10" height="10" as="alternateBounds" />
          </mxGeometry>
        </mxCell>
        <mxCell id="cE3jWu65OG-3f8qymqwR-236" value="" style="shape=partialRectangle;html=1;whiteSpace=wrap;connectable=0;strokeColor=inherit;overflow=hidden;fillColor=#F16A6E;top=0;left=0;bottom=0;right=0;pointerEvents=1;gradientColor=none;opacity=90;" vertex="1" parent="cE3jWu65OG-3f8qymqwR-234">
          <mxGeometry x="10" width="10" height="10" as="geometry">
            <mxRectangle width="10" height="10" as="alternateBounds" />
          </mxGeometry>
        </mxCell>
        <mxCell id="cE3jWu65OG-3f8qymqwR-237" value="" style="shape=partialRectangle;html=1;whiteSpace=wrap;connectable=0;strokeColor=inherit;overflow=hidden;fillColor=#ffd3db;top=0;left=0;bottom=0;right=0;pointerEvents=1;" vertex="1" parent="cE3jWu65OG-3f8qymqwR-234">
          <mxGeometry x="20" width="10" height="10" as="geometry">
            <mxRectangle width="10" height="10" as="alternateBounds" />
          </mxGeometry>
        </mxCell>
        <mxCell id="cE3jWu65OG-3f8qymqwR-238" value="" style="shape=tableRow;horizontal=0;startSize=0;swimlaneHead=0;swimlaneBody=0;strokeColor=inherit;top=0;left=0;bottom=0;right=0;collapsible=0;dropTarget=0;fillColor=none;points=[[0,0.5],[1,0.5]];portConstraint=eastwest;" vertex="1" parent="cE3jWu65OG-3f8qymqwR-229">
          <mxGeometry y="20" width="30" height="10" as="geometry" />
        </mxCell>
        <mxCell id="cE3jWu65OG-3f8qymqwR-239" value="" style="shape=partialRectangle;html=1;whiteSpace=wrap;connectable=0;strokeColor=inherit;overflow=hidden;fillColor=#ffc4cd;top=0;left=0;bottom=0;right=0;pointerEvents=1;" vertex="1" parent="cE3jWu65OG-3f8qymqwR-238">
          <mxGeometry width="10" height="10" as="geometry">
            <mxRectangle width="10" height="10" as="alternateBounds" />
          </mxGeometry>
        </mxCell>
        <mxCell id="cE3jWu65OG-3f8qymqwR-240" value="" style="shape=partialRectangle;html=1;whiteSpace=wrap;connectable=0;strokeColor=inherit;overflow=hidden;fillColor=#cf737d;top=0;left=0;bottom=0;right=0;pointerEvents=1;" vertex="1" parent="cE3jWu65OG-3f8qymqwR-238">
          <mxGeometry x="10" width="10" height="10" as="geometry">
            <mxRectangle width="10" height="10" as="alternateBounds" />
          </mxGeometry>
        </mxCell>
        <mxCell id="cE3jWu65OG-3f8qymqwR-241" value="" style="shape=partialRectangle;html=1;whiteSpace=wrap;connectable=0;strokeColor=inherit;overflow=hidden;fillColor=#ffb5bf;top=0;left=0;bottom=0;right=0;pointerEvents=1;" vertex="1" parent="cE3jWu65OG-3f8qymqwR-238">
          <mxGeometry x="20" width="10" height="10" as="geometry">
            <mxRectangle width="10" height="10" as="alternateBounds" />
          </mxGeometry>
        </mxCell>
        <mxCell id="cE3jWu65OG-3f8qymqwR-242" value="" style="endArrow=classic;html=1;rounded=0;endSize=3;exitX=1;exitY=0.5;exitDx=0;exitDy=0;" edge="1" parent="1" source="cE3jWu65OG-3f8qymqwR-219">
          <mxGeometry width="50" height="50" relative="1" as="geometry">
            <mxPoint x="177.56999999999994" y="3441" as="sourcePoint" />
            <mxPoint x="217.56999999999994" y="3441" as="targetPoint" />
          </mxGeometry>
        </mxCell>
        <mxCell id="cE3jWu65OG-3f8qymqwR-243" value="" style="endArrow=classic;html=1;rounded=0;exitX=1;exitY=0.5;exitDx=0;exitDy=0;endSize=3;entryX=0;entryY=0.5;entryDx=0;entryDy=0;entryPerimeter=0;" edge="1" parent="1" target="cE3jWu65OG-3f8qymqwR-244">
          <mxGeometry width="50" height="50" relative="1" as="geometry">
            <mxPoint x="228.90999999999997" y="3441" as="sourcePoint" />
            <mxPoint x="347.56999999999994" y="3441" as="targetPoint" />
          </mxGeometry>
        </mxCell>
        <mxCell id="cE3jWu65OG-3f8qymqwR-244" value="" style="verticalLabelPosition=bottom;verticalAlign=top;html=1;shape=mxgraph.flowchart.or;" vertex="1" parent="1">
          <mxGeometry x="320.06999999999994" y="3436" width="10" height="10" as="geometry" />
        </mxCell>
        <mxCell id="cE3jWu65OG-3f8qymqwR-245" value="" style="endArrow=classic;html=1;rounded=0;exitX=0.5;exitY=0.977;exitDx=0;exitDy=0;exitPerimeter=0;entryX=0.5;entryY=0;entryDx=0;entryDy=0;entryPerimeter=0;endSize=3;" edge="1" parent="1" source="cE3jWu65OG-3f8qymqwR-238" target="cE3jWu65OG-3f8qymqwR-244">
          <mxGeometry width="50" height="50" relative="1" as="geometry">
            <mxPoint x="377.56999999999994" y="3546" as="sourcePoint" />
            <mxPoint x="427.56999999999994" y="3496" as="targetPoint" />
          </mxGeometry>
        </mxCell>
        <mxCell id="cE3jWu65OG-3f8qymqwR-246" value="" style="endArrow=none;html=1;rounded=0;exitX=1;exitY=0.5;exitDx=0;exitDy=0;exitPerimeter=0;" edge="1" parent="1" source="cE3jWu65OG-3f8qymqwR-248">
          <mxGeometry width="50" height="50" relative="1" as="geometry">
            <mxPoint x="447.56999999999994" y="3466" as="sourcePoint" />
            <mxPoint x="444.56999999999994" y="3441" as="targetPoint" />
          </mxGeometry>
        </mxCell>
        <mxCell id="cE3jWu65OG-3f8qymqwR-247" value="" style="endArrow=none;html=1;rounded=0;exitX=1;exitY=0.5;exitDx=0;exitDy=0;exitPerimeter=0;" edge="1" parent="1" source="cE3jWu65OG-3f8qymqwR-244" target="cE3jWu65OG-3f8qymqwR-248">
          <mxGeometry width="50" height="50" relative="1" as="geometry">
            <mxPoint x="367.56999999999994" y="3441" as="sourcePoint" />
            <mxPoint x="517.5699999999999" y="3441" as="targetPoint" />
          </mxGeometry>
        </mxCell>
        <mxCell id="cE3jWu65OG-3f8qymqwR-248" value="" style="verticalLabelPosition=bottom;verticalAlign=top;html=1;shape=mxgraph.flowchart.or;" vertex="1" parent="1">
          <mxGeometry x="411.56999999999994" y="3436" width="10" height="10" as="geometry" />
        </mxCell>
        <mxCell id="cE3jWu65OG-3f8qymqwR-249" value="" style="endArrow=none;html=1;rounded=0;entryX=0;entryY=0.5;entryDx=0;entryDy=0;" edge="1" parent="1" target="cE3jWu65OG-3f8qymqwR-258">
          <mxGeometry width="50" height="50" relative="1" as="geometry">
            <mxPoint x="357.3899999999999" y="3441" as="sourcePoint" />
            <mxPoint x="357.3899999999999" y="3391" as="targetPoint" />
            <Array as="points">
              <mxPoint x="357.56999999999994" y="3391" />
            </Array>
          </mxGeometry>
        </mxCell>
        <mxCell id="cE3jWu65OG-3f8qymqwR-250" value="" style="endArrow=none;html=1;rounded=0;exitX=0.5;exitY=0;exitDx=0;exitDy=0;exitPerimeter=0;entryX=1;entryY=0.5;entryDx=0;entryDy=0;" edge="1" parent="1">
          <mxGeometry width="50" height="50" relative="1" as="geometry">
            <mxPoint x="416.56999999999994" y="3436.0000000000005" as="sourcePoint" />
            <mxPoint x="387.57000000004405" y="3391.0000000000005" as="targetPoint" />
            <Array as="points">
              <mxPoint x="416.56999999999994" y="3391" />
            </Array>
          </mxGeometry>
        </mxCell>
        <mxCell id="cE3jWu65OG-3f8qymqwR-251" value="" style="group" vertex="1" connectable="0" parent="1">
          <mxGeometry x="368.56999999999994" y="3386" width="12.400000000000006" height="11" as="geometry" />
        </mxCell>
        <mxCell id="cE3jWu65OG-3f8qymqwR-252" value="" style="shape=ellipse;html=1;dashed=0;whiteSpace=wrap;aspect=fixed;perimeter=ellipsePerimeter;textShadow=1;" vertex="1" parent="cE3jWu65OG-3f8qymqwR-251">
          <mxGeometry x="1.1999999999999886" width="10" height="10" as="geometry" />
        </mxCell>
        <mxCell id="cE3jWu65OG-3f8qymqwR-253" value="" style="rounded=0;whiteSpace=wrap;html=1;strokeColor=none;fillColor=#000000;" vertex="1" parent="cE3jWu65OG-3f8qymqwR-251">
          <mxGeometry x="2.6999999999999886" y="2.5" width="7" height="1" as="geometry" />
        </mxCell>
        <mxCell id="cE3jWu65OG-3f8qymqwR-254" value="&lt;font style=&quot;font-size: 8px;&quot;&gt;T&lt;/font&gt;" style="text;html=1;align=center;verticalAlign=middle;whiteSpace=wrap;rounded=0;textShadow=1;fontStyle=1" vertex="1" parent="cE3jWu65OG-3f8qymqwR-251">
          <mxGeometry width="12.4" height="10" as="geometry" />
        </mxCell>
        <mxCell id="cE3jWu65OG-3f8qymqwR-255" value="" style="endArrow=none;html=1;rounded=0;entryX=0;entryY=0.5;entryDx=0;entryDy=0;" edge="1" parent="1">
          <mxGeometry width="50" height="50" relative="1" as="geometry">
            <mxPoint x="127.56999999999994" y="3391.48" as="sourcePoint" />
            <mxPoint x="149.45000000000005" y="3391.4799999999996" as="targetPoint" />
          </mxGeometry>
        </mxCell>
        <mxCell id="cE3jWu65OG-3f8qymqwR-256" value="" style="endArrow=none;html=1;rounded=0;entryX=0;entryY=0.5;entryDx=0;entryDy=0;" edge="1" parent="1">
          <mxGeometry width="50" height="50" relative="1" as="geometry">
            <mxPoint x="74.32" y="3391.26" as="sourcePoint" />
            <mxPoint x="87.57000000000005" y="3391.2599999999998" as="targetPoint" />
          </mxGeometry>
        </mxCell>
        <mxCell id="cE3jWu65OG-3f8qymqwR-257" value="" style="group" vertex="1" connectable="0" parent="1">
          <mxGeometry x="391.56999999999994" y="3386" width="10" height="10" as="geometry" />
        </mxCell>
        <mxCell id="cE3jWu65OG-3f8qymqwR-258" value="" style="ellipse;html=1;verticalLabelPosition=bottom;labelBackgroundColor=#ffffff;verticalAlign=top;fillColor=#ffffff" vertex="1" parent="cE3jWu65OG-3f8qymqwR-257">
          <mxGeometry width="10" height="10" as="geometry" />
        </mxCell>
        <mxCell id="cE3jWu65OG-3f8qymqwR-259" style="edgeStyle=orthogonalEdgeStyle;rounded=0;orthogonalLoop=1;jettySize=auto;html=1;exitX=0;exitY=1;exitDx=0;exitDy=0;entryX=1;entryY=0;entryDx=0;entryDy=0;endArrow=none;endFill=0;curved=1;" edge="1" parent="cE3jWu65OG-3f8qymqwR-257" source="cE3jWu65OG-3f8qymqwR-258" target="cE3jWu65OG-3f8qymqwR-258">
          <mxGeometry relative="1" as="geometry">
            <Array as="points">
              <mxPoint x="5" y="8" />
              <mxPoint x="5" y="2" />
            </Array>
          </mxGeometry>
        </mxCell>
        <mxCell id="cE3jWu65OG-3f8qymqwR-260" value="" style="endArrow=none;html=1;rounded=0;entryX=0;entryY=0.5;entryDx=0;entryDy=0;" edge="1" parent="1">
          <mxGeometry width="50" height="50" relative="1" as="geometry">
            <mxPoint x="273.90999999999997" y="3266.9000000000005" as="sourcePoint" />
            <mxPoint x="290.72999999999996" y="3267" as="targetPoint" />
          </mxGeometry>
        </mxCell>
        <mxCell id="cE3jWu65OG-3f8qymqwR-261" value="conv" style="rounded=0;whiteSpace=wrap;html=1;strokeColor=#9673a6;align=center;verticalAlign=middle;fontFamily=Helvetica;fontSize=8;fillColor=#e1d5e7;" vertex="1" parent="1">
          <mxGeometry x="151.85999999999999" y="3278.5" width="30" height="30" as="geometry" />
        </mxCell>
        <mxCell id="cE3jWu65OG-3f8qymqwR-262" value="" style="endArrow=none;html=1;rounded=0;entryX=0;entryY=0.5;entryDx=0;entryDy=0;" edge="1" parent="1">
          <mxGeometry width="50" height="50" relative="1" as="geometry">
            <mxPoint x="139" y="3293.26" as="sourcePoint" />
            <mxPoint x="151.63000000000008" y="3293.2599999999998" as="targetPoint" />
          </mxGeometry>
        </mxCell>
        <mxCell id="cE3jWu65OG-3f8qymqwR-263" value="" style="endArrow=none;html=1;rounded=0;entryX=0;entryY=0.5;entryDx=0;entryDy=0;" edge="1" parent="1">
          <mxGeometry width="50" height="50" relative="1" as="geometry">
            <mxPoint x="232.72999999999988" y="3266.9000000000005" as="sourcePoint" />
            <mxPoint x="254.61000000000007" y="3266.9" as="targetPoint" />
          </mxGeometry>
        </mxCell>
        <mxCell id="cE3jWu65OG-3f8qymqwR-264" value="" style="endArrow=none;html=1;rounded=0;exitX=1;exitY=0.5;exitDx=0;exitDy=0;spacing=0;" edge="1" parent="1" source="cE3jWu65OG-3f8qymqwR-261">
          <mxGeometry width="50" height="50" relative="1" as="geometry">
            <mxPoint x="201.85" y="3338.5000000000005" as="sourcePoint" />
            <mxPoint x="217" y="3268" as="targetPoint" />
          </mxGeometry>
        </mxCell>
        <mxCell id="cE3jWu65OG-3f8qymqwR-265" value="GAP" style="rounded=1;whiteSpace=wrap;html=1;spacing=0;arcSize=16;verticalAlign=middle;align=center;fontSize=6;fillColor=#ffe289;strokeColor=none;" vertex="1" parent="1">
          <mxGeometry x="247.90999999999994" y="3255.5" width="28" height="23" as="geometry" />
        </mxCell>
        <mxCell id="cE3jWu65OG-3f8qymqwR-266" value="&lt;font style=&quot;font-size: 6px;&quot;&gt;MLP&lt;/font&gt;" style="rounded=1;whiteSpace=wrap;html=1;spacing=0;arcSize=16;verticalAlign=middle;align=center;fontSize=6;fillColor=#E6A67B;strokeColor=none;" vertex="1" parent="1">
          <mxGeometry x="289.46999999999997" y="3255.5" width="28" height="23" as="geometry" />
        </mxCell>
        <mxCell id="cE3jWu65OG-3f8qymqwR-267" value="" style="endArrow=none;html=1;rounded=0;entryX=0;entryY=0.5;entryDx=0;entryDy=0;" edge="1" parent="1">
          <mxGeometry width="50" height="50" relative="1" as="geometry">
            <mxPoint x="317.46999999999997" y="3266.8900000000003" as="sourcePoint" />
            <mxPoint x="336.2899999999999" y="3266.8900000000003" as="targetPoint" />
          </mxGeometry>
        </mxCell>
        <mxCell id="cE3jWu65OG-3f8qymqwR-268" value="" style="group" vertex="1" connectable="0" parent="1">
          <mxGeometry x="335.72999999999996" y="3262" width="10" height="10" as="geometry" />
        </mxCell>
        <mxCell id="cE3jWu65OG-3f8qymqwR-269" value="" style="ellipse;html=1;verticalLabelPosition=bottom;labelBackgroundColor=#ffffff;verticalAlign=top;fillColor=#ffffff" vertex="1" parent="cE3jWu65OG-3f8qymqwR-268">
          <mxGeometry width="10" height="10" as="geometry" />
        </mxCell>
        <mxCell id="cE3jWu65OG-3f8qymqwR-270" style="edgeStyle=orthogonalEdgeStyle;rounded=0;orthogonalLoop=1;jettySize=auto;html=1;exitX=0;exitY=1;exitDx=0;exitDy=0;entryX=1;entryY=0;entryDx=0;entryDy=0;endArrow=none;endFill=0;curved=1;" edge="1" parent="cE3jWu65OG-3f8qymqwR-268" source="cE3jWu65OG-3f8qymqwR-269" target="cE3jWu65OG-3f8qymqwR-269">
          <mxGeometry relative="1" as="geometry">
            <Array as="points">
              <mxPoint x="5" y="8" />
              <mxPoint x="5" y="2" />
            </Array>
          </mxGeometry>
        </mxCell>
        <mxCell id="cE3jWu65OG-3f8qymqwR-271" value="" style="endArrow=none;html=1;rounded=0;exitX=1;exitY=0.5;exitDx=0;exitDy=0;" edge="1" parent="1" source="cE3jWu65OG-3f8qymqwR-261">
          <mxGeometry width="50" height="50" relative="1" as="geometry">
            <mxPoint x="235.02999999999983" y="3298.5" as="sourcePoint" />
            <mxPoint x="393" y="3293.5" as="targetPoint" />
          </mxGeometry>
        </mxCell>
        <mxCell id="cE3jWu65OG-3f8qymqwR-272" value="" style="endArrow=none;html=1;rounded=0;exitX=1;exitY=0.5;exitDx=0;exitDy=0;entryX=0.053;entryY=0.355;entryDx=0;entryDy=0;entryPerimeter=0;" edge="1" parent="1" source="cE3jWu65OG-3f8qymqwR-269" target="cE3jWu65OG-3f8qymqwR-273">
          <mxGeometry width="50" height="50" relative="1" as="geometry">
            <mxPoint x="363.72999999999996" y="3344.5" as="sourcePoint" />
            <mxPoint x="373.72999999999996" y="3291.5" as="targetPoint" />
          </mxGeometry>
        </mxCell>
        <mxCell id="cE3jWu65OG-3f8qymqwR-273" value="" style="verticalLabelPosition=bottom;verticalAlign=top;html=1;shape=mxgraph.flowchart.or;" vertex="1" parent="1">
          <mxGeometry x="370.72999999999996" y="3287.5" width="10" height="10" as="geometry" />
        </mxCell>
        <mxCell id="cE3jWu65OG-3f8qymqwR-274" value="" style="endArrow=none;html=1;strokeWidth=2;rounded=0;dashed=1;exitX=0;exitY=0;exitDx=0;exitDy=0;strokeColor=#F16B6F;" edge="1" parent="1" source="cE3jWu65OG-3f8qymqwR-212">
          <mxGeometry width="50" height="50" relative="1" as="geometry">
            <mxPoint x="-2.07000000000005" y="3200" as="sourcePoint" />
            <mxPoint x="177" y="3145" as="targetPoint" />
          </mxGeometry>
        </mxCell>
        <mxCell id="cE3jWu65OG-3f8qymqwR-275" value="" style="endArrow=none;html=1;strokeWidth=2;rounded=0;dashed=1;strokeColor=#F16B6F;entryX=1;entryY=0;entryDx=0;entryDy=0;" edge="1" parent="1" target="cE3jWu65OG-3f8qymqwR-212">
          <mxGeometry width="50" height="50" relative="1" as="geometry">
            <mxPoint x="345" y="3145" as="sourcePoint" />
            <mxPoint x="250" y="3416" as="targetPoint" />
          </mxGeometry>
        </mxCell>
        <mxCell id="cE3jWu65OG-3f8qymqwR-276" value="" style="endArrow=none;html=1;strokeWidth=2;rounded=0;dashed=1;exitX=0;exitY=0;exitDx=0;exitDy=0;strokeColor=#96CA2D;entryX=0;entryY=0.5;entryDx=0;entryDy=0;" edge="1" parent="1" source="cE3jWu65OG-3f8qymqwR-211" target="cE3jWu65OG-3f8qymqwR-285">
          <mxGeometry width="50" height="50" relative="1" as="geometry">
            <mxPoint x="-52.07000000000005" y="3261.5" as="sourcePoint" />
            <mxPoint x="66.92999999999995" y="3325.5" as="targetPoint" />
          </mxGeometry>
        </mxCell>
        <mxCell id="cE3jWu65OG-3f8qymqwR-277" value="" style="endArrow=none;html=1;strokeWidth=2;rounded=0;dashed=1;exitX=1;exitY=0;exitDx=0;exitDy=0;strokeColor=#96CA2D;" edge="1" parent="1" source="cE3jWu65OG-3f8qymqwR-211">
          <mxGeometry width="50" height="50" relative="1" as="geometry">
            <mxPoint x="542.93" y="3325.5" as="sourcePoint" />
            <mxPoint x="343" y="3198" as="targetPoint" />
          </mxGeometry>
        </mxCell>
        <mxCell id="cE3jWu65OG-3f8qymqwR-278" value="" style="rounded=0;whiteSpace=wrap;html=1;strokeColor=none;gradientColor=none;textOpacity=0;flipV=1;flipH=1;opacity=75;" vertex="1" parent="1">
          <mxGeometry x="6" y="3101" width="521.93" height="131" as="geometry" />
        </mxCell>
        <mxCell id="cE3jWu65OG-3f8qymqwR-279" value="" style="endArrow=classic;html=1;rounded=0;strokeColor=#F16B6F;strokeWidth=2;" edge="1" parent="1">
          <mxGeometry width="50" height="50" relative="1" as="geometry">
            <mxPoint x="60" y="3040" as="sourcePoint" />
            <mxPoint x="480" y="3040" as="targetPoint" />
          </mxGeometry>
        </mxCell>
        <mxCell id="cE3jWu65OG-3f8qymqwR-280" value="" style="endArrow=classic;html=1;rounded=0;strokeColor=#96CA2D;strokeWidth=2;" edge="1" parent="1">
          <mxGeometry width="50" height="50" relative="1" as="geometry">
            <mxPoint x="60" y="3092.53" as="sourcePoint" />
            <mxPoint x="480" y="3092.53" as="targetPoint" />
          </mxGeometry>
        </mxCell>
        <mxCell id="cE3jWu65OG-3f8qymqwR-281" value="" style="endArrow=none;html=1;rounded=0;strokeColor=#F16B6F;strokeWidth=2;" edge="1" parent="1">
          <mxGeometry width="50" height="50" relative="1" as="geometry">
            <mxPoint x="60" y="3145" as="sourcePoint" />
            <mxPoint x="178.52999999999997" y="3144.9" as="targetPoint" />
          </mxGeometry>
        </mxCell>
        <mxCell id="cE3jWu65OG-3f8qymqwR-282" value="IR Features Fusion Branch" style="rounded=1;whiteSpace=wrap;html=1;strokeColor=#F16B6F;" vertex="1" parent="1">
          <mxGeometry x="176.7199999999999" y="3130" width="166.21" height="30" as="geometry" />
        </mxCell>
        <mxCell id="cE3jWu65OG-3f8qymqwR-283" value="" style="endArrow=none;html=1;rounded=0;strokeColor=#F16B6F;strokeWidth=2;" edge="1" parent="1">
          <mxGeometry width="50" height="50" relative="1" as="geometry">
            <mxPoint x="342.92999999999995" y="3144.83" as="sourcePoint" />
            <mxPoint x="409.53" y="3144.83" as="targetPoint" />
          </mxGeometry>
        </mxCell>
        <mxCell id="cE3jWu65OG-3f8qymqwR-284" value="" style="endArrow=none;html=1;rounded=0;strokeWidth=2;strokeColor=#96CA2D;" edge="1" parent="1">
          <mxGeometry width="50" height="50" relative="1" as="geometry">
            <mxPoint x="60" y="3201" as="sourcePoint" />
            <mxPoint x="178.52999999999997" y="3200.9" as="targetPoint" />
          </mxGeometry>
        </mxCell>
        <mxCell id="cE3jWu65OG-3f8qymqwR-285" value="VI Features Fusion Branch" style="rounded=1;whiteSpace=wrap;html=1;strokeColor=#519D9E;" vertex="1" parent="1">
          <mxGeometry x="176.7199999999999" y="3186" width="166.21" height="30" as="geometry" />
        </mxCell>
        <mxCell id="cE3jWu65OG-3f8qymqwR-286" value="" style="endArrow=none;html=1;rounded=0;strokeColor=#96CA2D;strokeWidth=2;" edge="1" parent="1">
          <mxGeometry width="50" height="50" relative="1" as="geometry">
            <mxPoint x="342.92999999999995" y="3200.83" as="sourcePoint" />
            <mxPoint x="409.53" y="3200.83" as="targetPoint" />
          </mxGeometry>
        </mxCell>
        <mxCell id="cE3jWu65OG-3f8qymqwR-287" value="" style="verticalLabelPosition=bottom;verticalAlign=top;html=1;shape=mxgraph.flowchart.summing_function;" vertex="1" parent="1">
          <mxGeometry x="403.92999999999995" y="3166" width="10" height="10" as="geometry" />
        </mxCell>
        <mxCell id="cE3jWu65OG-3f8qymqwR-288" value="" style="endArrow=none;html=1;rounded=0;strokeColor=#F16B6F;strokeWidth=2;" edge="1" parent="1">
          <mxGeometry width="50" height="50" relative="1" as="geometry">
            <mxPoint x="408.92999999999995" y="3166" as="sourcePoint" />
            <mxPoint x="408.8999999999999" y="3144" as="targetPoint" />
          </mxGeometry>
        </mxCell>
        <mxCell id="cE3jWu65OG-3f8qymqwR-289" value="" style="endArrow=classic;html=1;rounded=0;exitX=1;exitY=0.5;exitDx=0;exitDy=0;exitPerimeter=0;strokeColor=#FFC076;endFill=1;strokeWidth=2;" edge="1" parent="1" source="cE3jWu65OG-3f8qymqwR-287">
          <mxGeometry width="50" height="50" relative="1" as="geometry">
            <mxPoint x="597.93" y="3180" as="sourcePoint" />
            <mxPoint x="480" y="3171" as="targetPoint" />
          </mxGeometry>
        </mxCell>
        <mxCell id="cE3jWu65OG-3f8qymqwR-290" value="" style="endArrow=none;html=1;rounded=0;strokeColor=#96CA2D;entryX=0.5;entryY=1;entryDx=0;entryDy=0;entryPerimeter=0;strokeWidth=2;" edge="1" parent="1" target="cE3jWu65OG-3f8qymqwR-287">
          <mxGeometry width="50" height="50" relative="1" as="geometry">
            <mxPoint x="408.87999999999994" y="3201" as="sourcePoint" />
            <mxPoint x="408.8499999999999" y="3179" as="targetPoint" />
          </mxGeometry>
        </mxCell>
        <mxCell id="cE3jWu65OG-3f8qymqwR-291" value="" style="group" vertex="1" connectable="0" parent="1">
          <mxGeometry x="216.39" y="3329" width="20" height="21.5" as="geometry" />
        </mxCell>
        <mxCell id="cE3jWu65OG-3f8qymqwR-292" value="" style="ellipse;whiteSpace=wrap;html=1;aspect=fixed;" vertex="1" parent="cE3jWu65OG-3f8qymqwR-291">
          <mxGeometry y="1.5" width="20" height="20" as="geometry" />
        </mxCell>
        <mxCell id="cE3jWu65OG-3f8qymqwR-293" value="$$\text{Q}$$" style="text;html=1;align=center;verticalAlign=middle;whiteSpace=wrap;rounded=0;fontSize=10;" vertex="1" parent="cE3jWu65OG-3f8qymqwR-291">
          <mxGeometry x="3.4000000000000092" y="1.5" width="13.19" height="20" as="geometry" />
        </mxCell>
        <mxCell id="cE3jWu65OG-3f8qymqwR-294" value="" style="group" vertex="1" connectable="0" parent="1">
          <mxGeometry x="217.39" y="3430" width="20" height="20" as="geometry" />
        </mxCell>
        <mxCell id="cE3jWu65OG-3f8qymqwR-295" value="" style="ellipse;whiteSpace=wrap;html=1;aspect=fixed;" vertex="1" parent="cE3jWu65OG-3f8qymqwR-294">
          <mxGeometry width="20" height="20" as="geometry" />
        </mxCell>
        <mxCell id="cE3jWu65OG-3f8qymqwR-296" value="$$\text{V}$$" style="text;html=1;align=center;verticalAlign=middle;whiteSpace=wrap;rounded=0;fontSize=10;" vertex="1" parent="cE3jWu65OG-3f8qymqwR-294">
          <mxGeometry x="3.4099999999999113" width="13.19" height="20" as="geometry" />
        </mxCell>
        <mxCell id="cE3jWu65OG-3f8qymqwR-297" value="" style="group" vertex="1" connectable="0" parent="1">
          <mxGeometry x="216.39" y="3381.5" width="20" height="20" as="geometry" />
        </mxCell>
        <mxCell id="cE3jWu65OG-3f8qymqwR-298" value="" style="ellipse;whiteSpace=wrap;html=1;aspect=fixed;" vertex="1" parent="cE3jWu65OG-3f8qymqwR-297">
          <mxGeometry width="20" height="20" as="geometry" />
        </mxCell>
        <mxCell id="cE3jWu65OG-3f8qymqwR-299" value="$$\text{K}^\text{T}$$" style="text;html=1;align=center;verticalAlign=middle;whiteSpace=wrap;rounded=0;fontSize=10;" vertex="1" parent="cE3jWu65OG-3f8qymqwR-297">
          <mxGeometry x="3.8100000000000023" width="13.19" height="20" as="geometry" />
        </mxCell>
        <mxCell id="cE3jWu65OG-3f8qymqwR-300" value="" style="endArrow=none;html=1;rounded=0;entryX=0;entryY=0.5;entryDx=0;entryDy=0;entryPerimeter=0;exitX=1;exitY=0.5;exitDx=0;exitDy=0;" edge="1" parent="1">
          <mxGeometry width="50" height="50" relative="1" as="geometry">
            <mxPoint x="236.3900000000159" y="3391.0000000000005" as="sourcePoint" />
            <mxPoint x="254.31000000000006" y="3391.0000000000005" as="targetPoint" />
          </mxGeometry>
        </mxCell>
        <mxCell id="cE3jWu65OG-3f8qymqwR-301" value="" style="shape=cube;whiteSpace=wrap;html=1;boundedLbl=1;backgroundOutline=1;darkOpacity=0.05;darkOpacity2=0.1;rotation=90;fillColor=#F16B6F;strokeColor=#F16B6F;size=19;opacity=80;" vertex="1" parent="1">
          <mxGeometry x="12.000000000000043" y="3140.36" width="67.68" height="25.64" as="geometry" />
        </mxCell>
        <mxCell id="cE3jWu65OG-3f8qymqwR-302" value="" style="shape=cube;whiteSpace=wrap;html=1;boundedLbl=1;backgroundOutline=1;darkOpacity=0.05;darkOpacity2=0.1;rotation=90;fillColor=#96CA2D;strokeColor=#519D9E;size=19;opacity=80;" vertex="1" parent="1">
          <mxGeometry x="12.000000000000043" y="3201" width="67.68" height="25.64" as="geometry" />
        </mxCell>
        <mxCell id="cE3jWu65OG-3f8qymqwR-303" value="" style="shape=cube;whiteSpace=wrap;html=1;boundedLbl=1;backgroundOutline=1;darkOpacity=0.05;darkOpacity2=0.1;rotation=90;fillColor=#F16B6F;strokeColor=none;size=19;opacity=70;gradientColor=#96CA2D;gradientDirection=east;" vertex="1" parent="1">
          <mxGeometry x="460.25" y="3148.0000000000005" width="67.68" height="25.64" as="geometry" />
        </mxCell>
        <mxCell id="cE3jWu65OG-3f8qymqwR-304" value="" style="shape=cube;whiteSpace=wrap;html=1;boundedLbl=1;backgroundOutline=1;darkOpacity=0.05;darkOpacity2=0.1;rotation=90;fillColor=#F16B6F;strokeColor=#F16B6F;size=19;opacity=80;" vertex="1" parent="1">
          <mxGeometry x="12.000000000000043" y="3020" width="67.68" height="25.64" as="geometry" />
        </mxCell>
        <mxCell id="cE3jWu65OG-3f8qymqwR-305" value="" style="shape=cube;whiteSpace=wrap;html=1;boundedLbl=1;backgroundOutline=1;darkOpacity=0.05;darkOpacity2=0.1;rotation=90;fillColor=#96CA2D;strokeColor=#519D9E;size=19;opacity=80;" vertex="1" parent="1">
          <mxGeometry x="12.000000000000043" y="3080" width="67.68" height="25.64" as="geometry" />
        </mxCell>
        <mxCell id="cE3jWu65OG-3f8qymqwR-306" value="" style="shape=cube;whiteSpace=wrap;html=1;boundedLbl=1;backgroundOutline=1;darkOpacity=0.05;darkOpacity2=0.1;rotation=90;fillColor=#F16B6F;strokeColor=#F16B6F;size=19;opacity=80;" vertex="1" parent="1">
          <mxGeometry x="460.25" y="3020" width="67.68" height="25.64" as="geometry" />
        </mxCell>
        <mxCell id="cE3jWu65OG-3f8qymqwR-307" value="" style="shape=cube;whiteSpace=wrap;html=1;boundedLbl=1;backgroundOutline=1;darkOpacity=0.05;darkOpacity2=0.1;rotation=90;fillColor=#96CA2D;strokeColor=#519D9E;size=19;opacity=80;" vertex="1" parent="1">
          <mxGeometry x="460.25" y="3080" width="67.68" height="25.64" as="geometry" />
        </mxCell>
        <mxCell id="cE3jWu65OG-3f8qymqwR-308" value="&lt;font style=&quot;font-size: 7px;&quot;&gt;G&lt;/font&gt;" style="rounded=1;whiteSpace=wrap;html=1;spacing=0;arcSize=50;verticalAlign=middle;align=center;fontSize=6;rotation=0;" vertex="1" parent="1">
          <mxGeometry x="193.15" y="3273" width="10.39" height="11" as="geometry" />
        </mxCell>
        <mxCell id="cE3jWu65OG-3f8qymqwR-309" value="" style="group" vertex="1" connectable="0" parent="1">
          <mxGeometry x="217.53733824302984" y="3251.5" width="15.142661756970014" height="29" as="geometry" />
        </mxCell>
        <mxCell id="cE3jWu65OG-3f8qymqwR-310" value="" style="shape=cube;whiteSpace=wrap;html=1;boundedLbl=1;backgroundOutline=1;darkOpacity=0.05;darkOpacity2=0.1;size=10;rotation=0;flipH=1;" vertex="1" parent="cE3jWu65OG-3f8qymqwR-309">
          <mxGeometry width="8.94266175697002" height="29.000000000000004" as="geometry" />
        </mxCell>
        <mxCell id="cE3jWu65OG-3f8qymqwR-311" value="" style="shape=cube;whiteSpace=wrap;html=1;boundedLbl=1;backgroundOutline=1;darkOpacity=0.05;darkOpacity2=0.1;size=10;rotation=0;flipH=1;" vertex="1" parent="cE3jWu65OG-3f8qymqwR-309">
          <mxGeometry x="1.9399999999999977" width="8.94266175697002" height="29.000000000000004" as="geometry" />
        </mxCell>
        <mxCell id="cE3jWu65OG-3f8qymqwR-312" value="" style="shape=cube;whiteSpace=wrap;html=1;boundedLbl=1;backgroundOutline=1;darkOpacity=0.05;darkOpacity2=0.1;size=10;rotation=0;flipH=1;" vertex="1" parent="cE3jWu65OG-3f8qymqwR-309">
          <mxGeometry x="4.009999999999991" width="8.94266175697002" height="29.000000000000004" as="geometry" />
        </mxCell>
        <mxCell id="cE3jWu65OG-3f8qymqwR-313" value="" style="shape=cube;whiteSpace=wrap;html=1;boundedLbl=1;backgroundOutline=1;darkOpacity=0.05;darkOpacity2=0.1;size=10;rotation=0;flipH=1;" vertex="1" parent="cE3jWu65OG-3f8qymqwR-309">
          <mxGeometry x="6.199999999999989" width="8.94266175697002" height="29.000000000000004" as="geometry" />
        </mxCell>
      </root>
    </mxGraphModel>
  </diagram>
</mxfile>
